<mxfile host="app.diagrams.net" modified="2024-11-12T07:18:06.328Z" agent="Mozilla/5.0 (Windows NT 10.0; Win64; x64) AppleWebKit/537.36 (KHTML, like Gecko) Chrome/128.0.0.0 Safari/537.36 OPR/114.0.0.0" version="24.4.10" etag="TrGDGrvXYQHDXbc1-XKZ" type="github">
  <diagram name="Page-1" id="3oiG7HlzKsgFgzntOQtb">
    <mxGraphModel>
      <root>
        <mxCell id="0" />
        <mxCell id="1" parent="0" />
      </root>
    </mxGraphModel>
  </diagram>
</mxfile>
